Coordinates
version=1
nRows=6
nColumns=36
inDegrees=yes

Units are S.I. units (second, meters, Newtons, ...)
If the header above contains a line with 'inDegrees', this indicates whether rotational values are in degrees (yes) or radians (no).

endheader
time	pelvis_tilt	pelvis_list	pelvis_rotation	pelvis_tx	pelvis_ty	pelvis_tz	hip_flexion_r	hip_adduction_r	hip_rotation_r	knee_angle_r	knee_angle_r_beta	ankle_angle_r	subtalar_angle_r	mtp_angle_r	hip_flexion_l	hip_adduction_l	hip_rotation_l	knee_angle_l	knee_angle_l_beta	ankle_angle_l	subtalar_angle_l	mtp_angle_l	lumbar_extension	lumbar_bending	lumbar_rotation	arm_flex_r	arm_add_r	arm_rot_r	elbow_flex_r	pro_sup_r	arm_flex_l	arm_add_l	arm_rot_l	elbow_flex_l	pro_sup_l
      9.05000000	     -1.17843340	      0.16912780	     -2.09638782	      0.21897715	      0.96667564	      0.08323755	      1.96195339	     -1.33849905	    -17.43610021	      1.51932054	      0.02651715	      1.22781565	      5.73688987	     -7.49999987	      0.81661753	     -4.32776505	    -28.90916573	      0.65592692	      0.01144808	      1.96394568	      9.54615362	     -7.49999987	      4.54751291	      0.55657095	      2.28970255	     35.46853518	      7.29198128	     43.45395972	    121.14279813	     99.20293604	     53.07105235	     10.88801328	     67.77234174	    124.10989563	     75.58471808
      9.06666670	     -1.22808038	      0.17690955	     -2.08664169	      0.21794898	      0.97001084	      0.08274851	      2.06984697	     -1.35967727	    -17.38215832	      1.52671851	      0.02664626	      1.24019805	      5.94070533	     -7.49999987	      0.89956666	     -4.34159248	    -28.76001575	      0.68546831	      0.01196368	      2.06179833	      9.74624045	     -7.49999987	      4.57757580	      0.58313486	      2.33271785	     35.57429120	      7.41161433	     44.33409136	    121.32351604	     95.12933629	     53.11394908	     10.92758207	     68.17726222	    124.26561115	     73.37286796
      9.08333330	     -1.36671075	      0.21252911	     -2.09669674	      0.21766861	      0.97315525	      0.08250410	      2.30267045	     -1.40491989	    -17.06032240	      1.51138252	      0.02637860	      1.10609408	      5.72533109	     -7.49999987	      1.10500842	     -4.30622220	    -28.48719139	      0.69938690	      0.01220660	      1.85943212	      9.31151952	     -7.49999987	      4.64966925	      0.63182755	      2.49446247	     35.54985542	      7.66894151	     45.65618027	    121.68866244	     99.64844567	     52.89444212	     10.96644897	     68.57072713	    124.35418877	     75.12774418
      9.10000000	     -1.41312702	      0.24722488	     -2.06558563	      0.21755765	      0.97586817	      0.08231900	      2.38607150	     -1.45162816	    -16.86447904	      1.47652739	      0.02577026	      0.81501452	      5.70435293	     -7.49999987	      1.19961050	     -4.25700913	    -28.35201342	      0.71581077	      0.01249325	      1.63905546	      9.28270173	     -7.49999987	      4.59778241	      0.68790133	      2.50364062	     35.45141278	      7.60848214	     46.43103724	    121.49746571	     99.48935281	     52.70708351	     10.94673825	     69.03421302	    124.47635993	     74.43572154
      9.11666670	     -1.48948385	      0.26371448	     -2.03925083	      0.21551241	      0.97598035	      0.08251195	      2.52707664	     -1.47895752	    -16.83106014	      1.42014749	      0.02478625	      0.54177589	      5.76856820	     -7.49999987	      1.36363189	     -4.23060603	    -28.14254878	      0.73063077	      0.01275191	      1.37803662	      9.07920183	     -7.49999987	      4.51535260	      0.75300473	      2.44954711	     35.38639230	      7.48060663	     46.43420815	    121.19495595	     99.41122735	     52.68208300	     10.80550247	     69.35548917	    124.42309976	     73.92632014
      9.13333330	     -1.55575614	      0.28607923	     -1.98292296	      0.21412037	      0.97899192	      0.08273035	      2.64463006	     -1.51191637	    -16.59506314	      1.34519740	      0.02347812	      0.27585617	      5.93614125	     -7.49999987	      1.53152208	     -4.20912694	    -27.89648735	      0.73284202	      0.01279051	      1.14822468	      8.96638706	     -7.49999987	      4.39763887	      0.71436771	      2.35964605	     35.35076475	      7.58202466	     47.04203117	    120.99303352	     99.47212017	     52.68574025	     10.59578847	     69.69272261	    124.08310898	     73.68982539
